<svg xmlns="http://www.w3.org/2000/svg" viewBox="0 0 512 512" role="img" aria-label="들일까 앱 아이콘">
  <rect width="512" height="512" fill="#fff4f7" />
  <path
    d="M116 80l16 30 32 16-32 16-16 32-16-32-32-16 32-16z"
    fill="#f2b7c7"
  />
  <path
    d="M396 82l15 29 31 15-31 15-15 31-15-31-31-15 31-15z"
    fill="#d6c0ee"
  />
  <path
    d="M116 342l15 30 31 15-31 15-15 31-15-31-31-15 31-15z"
    fill="#f2c39e"
  />
  <path
    d="M396 342l16 30 32 16-32 16-16 32-16-32-32-16 32-16z"
    fill="#a9d6d0"
  />
  <path
    d="M256 350c-12-11-80-53-80-112 0-35 26-62 59-62 22 0 40 11 51 31 11-20 29-31 51-31 33 0 59 27 59 62 0 59-68 101-80 112l-30 25z"
    fill="#df83a3"
  />
</svg>
