<svg xmlns="http://www.w3.org/2000/svg" viewBox="0 0 512 512" role="img" aria-label="들일까 앱 아이콘">
  <rect width="512" height="512" fill="#fff4f7" />
  <path
    d="M256 110l27 82 86 1-69 50 26 82-70-50-70 50 26-82-69-50 86-1z"
    fill="#9b5a73"
  />
  <path
    d="M142 284l15 46 48 1-39 28 15 46-39-28-39 28 15-46-39-28 48-1z"
    fill="#d889a2"
  />
  <path
    d="M370 304l14 43 45 1-36 26 14 43-37-26-36 26 14-43-36-26 45-1z"
    fill="#d889a2"
  />
  <path
    d="M126 126l12 35h37l-30 22 12 36-31-22-30 22 12-36-30-22h37z"
    fill="#f1b8c8"
  />
  <path
    d="M394 126l12 35h37l-30 22 12 36-31-22-30 22 12-36-30-22h37z"
    fill="#f1b8c8"
  />
</svg>
